<?xml version="1.0" encoding="UTF-8"?>
<svg id="Layer_1" xmlns="http://www.w3.org/2000/svg" version="1.1" viewBox="0 0 64 64">
  <!-- Generator: Adobe Illustrator 29.6.1, SVG Export Plug-In . SVG Version: 2.1.1 Build 9)  -->
  <defs>
    <style>
      .st0 {
        fill: #0374ef;
      }
    </style>
  </defs>
  <path class="st0" d="M58.5,38.5l-20,20c-.5.5-1.1.9-1.8,1.2-.7.3-1.3.4-2,.4s-1.3-.1-2-.4c-.7-.3-1.3-.7-1.8-1.2L5.5,33.1c-.5-.5-.9-1.1-1.2-1.7-.3-.7-.4-1.3-.4-2.1V9.3c0-1.5.5-2.7,1.6-3.8,1-1.1,2.3-1.6,3.8-1.6h20.1c.7,0,1.4.1,2.1.4.7.3,1.3.7,1.7,1.2l25.4,25.4c.5.5.9,1.1,1.2,1.8.2.7.4,1.3.4,2,0,.7-.1,1.3-.4,2-.2.7-.6,1.3-1.2,1.8ZM35.4,55.4l20-20c.2-.2.3-.4.3-.7s0-.5-.3-.7L29.7,8.4H9.3c-.3,0-.5,0-.7.3-.2.2-.3.4-.3.7v20c0,.1,0,.2,0,.3,0,.1.1.2.2.3l25.4,25.4c.2.2.4.3.7.3s.5,0,.7-.3ZM15.8,19.5c1,0,1.9-.4,2.6-1.1.7-.7,1.1-1.6,1.1-2.6s-.4-1.9-1.1-2.6c-.7-.7-1.6-1.1-2.6-1.1s-1.9.4-2.6,1.1c-.7.7-1.1,1.6-1.1,2.6s.4,1.9,1.1,2.6c.7.7,1.6,1.1,2.6,1.1Z"/>
</svg>