<?xml version="1.0" encoding="UTF-8"?>
<svg id="Layer_1" xmlns="http://www.w3.org/2000/svg" version="1.1" viewBox="0 0 64 64">
  <!-- Generator: Adobe Illustrator 29.6.1, SVG Export Plug-In . SVG Version: 2.1.1 Build 9)  -->
  <defs>
    <style>
      .st0 {
        fill: #0374ef;
      }
    </style>
  </defs>
  <path class="st0" d="M32,61.2c-7.5,0-14-2.5-19.5-7.4-5.5-4.9-8.7-11.1-9.5-18.5h6.6c.8,5.6,3.3,10.3,7.5,13.9,4.2,3.7,9.2,5.5,14.9,5.5s11.7-2.2,16.1-6.6c4.4-4.4,6.6-9.8,6.6-16.1s-2.2-11.7-6.6-16.1c-4.4-4.4-9.8-6.6-16.1-6.6s-7.2.9-10.5,2.6-6,4.1-8.2,7.1h8.9v6.5H2.8V6.1h6.5v7.6c2.8-3.5,6.1-6.1,10.1-8s8.2-2.8,12.6-2.8,7.8.8,11.4,2.3,6.6,3.6,9.2,6.2,4.7,5.7,6.2,9.2,2.3,7.3,2.3,11.4-.8,7.8-2.3,11.4-3.6,6.6-6.2,9.2c-2.6,2.6-5.7,4.7-9.2,6.2s-7.3,2.3-11.4,2.3ZM41.1,45.6l-12.3-12.3V15.8h6.5v14.9l10.4,10.4-4.5,4.5Z"/>
</svg>