<?xml version="1.0" encoding="UTF-8"?>
<svg id="Layer_1" xmlns="http://www.w3.org/2000/svg" version="1.1" viewBox="0 0 64 52.4">
  <!-- Generator: Adobe Illustrator 29.6.1, SVG Export Plug-In . SVG Version: 2.1.1 Build 9)  -->
  <defs>
    <style>
      .st0 {
        fill: #0374ef;
        stroke: #fff;
        stroke-miterlimit: 10;
      }
    </style>
  </defs>
  <path class="st0" d="M18.9,48.1c-2.2,0-4.1-.8-5.7-2.3-1.6-1.6-2.3-3.5-2.3-5.7H3.9l1-4.4h7.4c.7-1.1,1.6-2,2.7-2.7,1.1-.7,2.4-1,3.8-1s2.6.3,3.8,1c1.1.7,2.1,1.5,2.7,2.7h12.9l6.3-27.1H12.5l.2-.8c.2-1.1.7-1.9,1.6-2.6.8-.7,1.8-1,2.9-1h32.9l-2.5,11h7.3l8.4,11.1-2.7,13.7h-4.6c0,2.2-.8,4.1-2.3,5.7-1.6,1.6-3.5,2.3-5.7,2.3s-4.1-.8-5.7-2.3c-1.6-1.6-2.3-3.5-2.3-5.7h-12.8c0,2.2-.8,4.1-2.3,5.7-1.6,1.6-3.5,2.3-5.7,2.3ZM44.2,29.5h13.9l.4-2.1-5.8-7.8h-6.1l-2.3,9.9ZM44.1,10.4l.4-1.7-6.3,27.1.4-1.7,2.4-10.5,3-13.2ZM.8,29.6l1.1-4.4h14.6l-1.1,4.4H.8ZM6.7,19.1l1.1-4.4h17.5l-1.1,4.4H6.7ZM18.9,43.7c1,0,1.9-.4,2.6-1.1.7-.7,1.1-1.6,1.1-2.6s-.4-1.9-1.1-2.6c-.7-.7-1.6-1.1-2.6-1.1s-1.9.4-2.6,1.1c-.7.7-1.1,1.6-1.1,2.6s.4,1.9,1.1,2.6c.7.7,1.6,1.1,2.6,1.1ZM47.8,43.7c1,0,1.9-.4,2.6-1.1.7-.7,1.1-1.6,1.1-2.6,0-1-.4-1.9-1.1-2.6-.7-.7-1.6-1.1-2.6-1.1s-1.9.4-2.6,1.1c-.7.7-1.1,1.6-1.1,2.6s.4,1.9,1.1,2.6c.7.7,1.6,1.1,2.6,1.1Z"/>
</svg>